<?xml version="1.0" encoding="utf-8"?>
<!-- Generator: Adobe Illustrator 22.1.0, SVG Export Plug-In . SVG Version: 6.00 Build 0)  -->
<svg version="1.1" id="Слой_1" xmlns="http://www.w3.org/2000/svg" xmlns:xlink="http://www.w3.org/1999/xlink" x="0px" y="0px"
	 viewBox="0 0 77 60" style="enable-background:new 0 0 77 60;" xml:space="preserve">
<style type="text/css">
	.st0{fill:#F2F2F2;}
	.st1{fill:#92C73D;}
	.st2{fill:#000008;}
	.st3{fill:#EB1C24;}
	.st4{fill:#FFFFFF;}
	.st5{fill:#FCD600;}
</style>
<title>SUSHI PUB</title>
<g id="Слой_2_1_">
	<g id="Слой_1-2">
		<path class="st0" d="M17.8,22c1.9-6.5,7.1-12.2,13.7-14.5c9.8-3.4,20.5,0.6,30.9,0.4c3-0.1,6.1-0.5,8.7-1.8c4-2,6-7.4,5.7-5.8
			c-1.5,8.2-0.5,16.6-1.5,24.8s-4.3,17-11.8,21.1C58.5,49.2,52.1,49.4,46,49S34,47.4,28,47.9c-3.9,0.3-7.7,1.4-11.2,3
			c-4,1.9-7.8,4.9-8.8,9.1c0.6-5.1,1.3-10.2,2.3-15.2c0.8-4.1,1.8-8.3,3.6-12.1c1.8-3.9,4.5-7.8,3.8-11.9"/>
		<path class="st1" d="M14.4,21.8c2-6.1,7.3-11.5,14.1-13.7C38.6,5,49.7,8.8,60.4,8.6c3.1-0.1,6.2-0.5,9-1.7c4.2-1.9,6.2-7,5.9-5.5
			c-1.5,7.7-0.5,15.6-1.5,23.4s-4.5,16-12.1,19.9c-5.4,2.8-12,3-18.2,2.6c-6.2-0.4-12.4-1.5-18.6-1c-4,0.3-7.9,1.3-11.5,2.8
			c-4.1,1.8-8,4.6-9.1,8.5c0.6-4.8,1.4-9.6,2.4-14.3c0.8-3.9,1.9-7.8,3.7-11.4s4.6-7.3,3.9-11.2"/>
		<path class="st2" d="M69.8,6.8c-2.9,1.8-6.5,2.5-10,2.8C51.7,10.3,43.6,9,35.5,8.8c-8.8-0.2-19.2,1-25.8,7.8
			c-0.9,0.9-1.7,2-2.3,3.2c-1.6,3.1-2.2,6.5-2.8,9.9c-1,5.9-1.3,12.1-3,17.9c-0.1,0.4-1.1,4.2-1.4,4.4c3.8-2.3,8.8-5.7,13.2-6.4
			c6.9-1,13.8-0.3,20.7,0.2s13.9,0.7,20.6-1.2c4.8-1.3,9.5-3.9,12.5-7.9c3.4-4.5,4.5-10.5,4.8-16.2s0.1-11.5,1.4-17.1
			C72.6,4.8,71.3,6,69.8,6.8z"/>
		<path class="st3" d="M69.9,6.9C68.1,8,66.1,8.7,64,9.1c-1,0.2-2,0.4-3.1,0.5c-0.5,0.1-1,0.1-1.6,0.1s-1,0.1-1.6,0.1
			c-4.2,0.2-8.3,0-12.5-0.2C41.2,9.5,37.1,9.2,33,9.2c-2.1,0-4.1,0.2-6.2,0.4c-2,0.2-4.1,0.6-6,1.2c-2,0.5-3.9,1.3-5.7,2.2
			c-1.8,0.9-3.5,2.1-4.9,3.6c-0.7,0.7-1.4,1.5-1.9,2.3c-0.3,0.4-0.5,0.9-0.7,1.3c-0.2,0.5-0.4,0.9-0.6,1.4c-0.4,1-0.7,1.9-1,2.9
			c-0.3,1-0.5,2-0.7,3c-0.8,4.1-1.2,8.2-1.8,12.3C3.1,41.9,2.7,44,2.2,46c-0.1,0.5-0.3,1-0.4,1.5L1.4,49c-0.1,0.5-0.3,1-0.4,1.5
			C1,50.8,0.9,51,0.8,51.3c0,0.1-0.1,0.3-0.1,0.4c0,0.1-0.1,0.1-0.1,0.2c0,0,0,0.1-0.1,0.1c0,0.1-0.1,0.1-0.1,0.2
			c-0.1,0.1-0.3,0.1-0.4,0c-0.1-0.1-0.1-0.3,0-0.4c0,0,0,0,0,0l0,0l0,0c1.9-1.2,3.7-2.4,5.6-3.5s3.9-2.1,6.1-2.7
			c0.5-0.2,1.1-0.3,1.7-0.4c0.6-0.1,1.1-0.2,1.7-0.2l0.8-0.1l0.8-0.1c0.6,0,1.1-0.1,1.7-0.1c2.2-0.1,4.4-0.1,6.6,0
			c4.4,0.2,8.8,0.6,13.2,0.7c4.4,0.2,8.8,0.1,13-0.7l0.8-0.1l0.8-0.2c0.5-0.1,1.1-0.3,1.6-0.4c1-0.3,2.1-0.6,3.1-1
			c2-0.8,3.9-1.8,5.6-3.1c1.7-1.3,3.2-2.8,4.4-4.6c1.2-1.8,2.1-3.8,2.7-5.9c0.6-2.1,1.1-4.2,1.3-6.4c0.3-2.2,0.4-4.4,0.5-6.6
			c0.1-2.2,0.2-4.4,0.4-6.6c0.1-1.1,0.2-2.2,0.4-3.3s0.4-2.2,0.6-3.3l0.1,0.1C72.6,4.8,71.3,6,69.9,6.9z M69.8,6.8
			c1.5-0.9,2.7-2.1,3.7-3.5c0,0,0.1,0,0.1,0c0,0,0,0,0,0c0,0,0,0,0,0.1l0,0c-0.5,2.2-0.7,4.3-0.9,6.5c-0.1,2.2-0.1,4.4-0.2,6.6
			c0,2.2-0.1,4.4-0.3,6.6c-0.2,2.2-0.5,4.4-1.1,6.6c-0.6,2.2-1.5,4.3-2.7,6.2c-0.3,0.5-0.6,0.9-1,1.4c-0.3,0.5-0.7,0.9-1.1,1.3
			c-0.8,0.8-1.6,1.6-2.5,2.3c-1.8,1.4-3.8,2.5-5.9,3.3c-2.1,0.8-4.3,1.4-6.5,1.8c-4.4,0.8-8.9,0.8-13.3,0.6s-8.8-0.6-13.2-0.9
			c-2.2-0.1-4.4-0.2-6.6-0.1c-1.1,0-2.2,0.1-3.3,0.2c-0.5,0-1.1,0.1-1.6,0.2c-0.5,0.1-1.1,0.2-1.6,0.3c-2.1,0.5-4.1,1.5-6,2.5
			c-1.9,1-3.8,2.2-5.7,3.4l-0.2-0.4c0,0,0,0,0,0s0,0,0-0.1c0,0,0-0.1,0.1-0.2c0-0.1,0.1-0.2,0.1-0.4c0.1-0.2,0.2-0.5,0.2-0.7
			c0.2-0.5,0.3-1,0.4-1.5l0.4-1.5c0.1-0.5,0.3-1,0.4-1.5c0.5-2,0.9-4,1.2-6.1s0.6-4.1,0.8-6.2c0.3-2.1,0.6-4.1,0.9-6.2
			c0.4-2.1,0.8-4.1,1.6-6.1c0.2-0.5,0.4-1,0.6-1.5c0.2-0.5,0.5-1,0.7-1.4c0.6-0.9,1.2-1.7,2-2.5c1.5-1.5,3.2-2.8,5-3.8
			c1.8-1,3.8-1.8,5.8-2.4c2-0.6,4.1-1,6.2-1.2c2.1-0.2,4.2-0.4,6.3-0.4c4.2,0,8.3,0.4,12.5,0.8c4.1,0.4,8.3,0.7,12.4,0.6
			C59.9,9.6,62,9.4,64,9C66,8.5,68,7.9,69.8,6.8L69.8,6.8z"/>
		<path class="st4" d="M16.5,26.6c0,0.7-0.2,1.3-0.7,1.8c-0.5,0.4-1.2,0.7-1.8,0.7c-1.6,0-2.4-0.9-2.4-2.8h1.9c0,0.1,0,0.2,0,0.3
			c0,0.2,0,0.4,0.1,0.6c0.1,0.2,0.3,0.4,0.5,0.4c0.5,0,0.7-0.3,0.7-0.9c0-0.5-0.3-1.1-1-1.6c-0.8-0.7-1.3-1.1-1.3-1.2
			c-0.5-0.5-0.7-1-0.7-1.5c0-0.6,0.2-1.2,0.6-1.7c0.4-0.4,1-0.6,1.7-0.6c1.5,0,2.3,0.8,2.4,2.4h-1.8c0,0,0-0.1,0-0.1
			c0-0.2,0-0.4-0.1-0.5c-0.1-0.2-0.2-0.3-0.4-0.3c-0.4,0-0.6,0.2-0.6,0.6c0,0.4,0.2,0.7,0.6,1l1,0.8C16,24.7,16.5,25.6,16.5,26.6z"
			/>
		<path class="st4" d="M22.1,22.4c0,0.1,0,0.3,0,0.4v5.5c0,0.1,0,0.3,0,0.4h-1.7l0.1-0.7c-0.4,0.6-1,0.9-1.6,0.9
			c-1.2,0-1.7-0.7-1.7-2.2v-3.8c0-0.1,0-0.3,0-0.4h1.7c0,0.1,0,0.3,0,0.4v3.4c0,0.2,0,0.5,0.1,0.7c0.1,0.2,0.3,0.4,0.5,0.4
			c0.4,0,0.8-0.3,1-1v-3.6c0-0.1,0-0.3,0-0.4H22.1z"/>
		<path class="st4" d="M27.3,27c0,0.6-0.2,1.1-0.7,1.4c-0.5,0.3-1,0.5-1.6,0.5c-0.7,0-1.2-0.2-1.7-0.6c-0.4-0.4-0.7-0.9-0.7-1.6h1.8
			c0,0.5,0.2,0.8,0.6,0.8c0.4,0,0.5-0.2,0.5-0.5c0-0.2-0.2-0.4-0.6-0.7c-0.2-0.1-0.5-0.3-0.9-0.5c-0.8-0.5-1.2-1-1.2-1.7
			c0-0.5,0.2-1.1,0.6-1.5c0.4-0.4,0.9-0.6,1.5-0.5c1.3,0,2.1,0.7,2.4,2.1h-1.6c0-0.5-0.2-0.7-0.5-0.7s-0.5,0.1-0.5,0.4
			c0,0.1,0.3,0.4,0.9,0.8c0.4,0.3,0.8,0.6,1.2,0.9C27,26,27.3,26.5,27.3,27z"/>
		<path class="st4" d="M32.8,28.6h-1.7c0-0.1,0-0.2,0-0.4v-3.5c0-0.2,0-0.4-0.1-0.7c-0.1-0.2-0.3-0.3-0.5-0.3c-0.4,0-0.7,0.3-1,0.9
			v3.6c0,0.1,0,0.2,0,0.4H28c0-0.1,0-0.2,0-0.3v-8.1c0-0.1,0-0.2,0-0.2h1.7c0,0.1,0,0.2,0,0.2v2.7c0.5-0.5,1-0.7,1.5-0.7
			c0.6,0,1,0.2,1.3,0.6c0.3,0.4,0.4,0.8,0.4,1.5v4C32.8,28.4,32.8,28.5,32.8,28.6z"/>
		<path class="st4" d="M36.8,21.6l-0.3,0.3h-1.4l-0.3-0.3v-1.1l0.3-0.3h1.4l0.3,0.3V21.6z M36.7,28.6H35v-5.3c0-0.2,0-0.4,0-0.4h1.8
			c0,0.1,0,0.2,0,0.4v5C36.7,28.4,36.7,28.5,36.7,28.6z"/>
		<path class="st3" d="M51.9,20.2c-0.1,0.3-0.1,0.6-0.2,0.8c-0.2,0.7-0.3,1-0.4,1.1c-0.4,1.4-0.9,2.8-1.6,4.1
			c-1.3,2.7-2.6,4.1-3.8,4.1c-0.3,0-0.5-0.1-0.7-0.3c-0.2-0.1-0.3-0.4-0.3-0.6c0-0.5,0.1-1,0.3-1.4c0.2-0.5,0.4-0.9,0.7-1.3
			c0,0.1,0.1,0.2,0.1,0.3c0.1,0.1,0.1,0.2,0.1,0.3c0,0.3-0.1,0.6-0.2,1c0.1,0,0.2,0.1,0.3,0c1,0,1.9-1,2.8-3
			c0.5-1.1,0.8-2.2,1.1-3.3c0.2-0.7,0.4-1.5,0.7-2.2c0.1-0.2,0.2-0.3,0.3-0.4c0.2-0.2,0.3-0.4,0.3-0.4l0.3,0.6
			C51.9,19.8,51.9,20,51.9,20.2z M59.5,20.4c0,0.2-0.2,0.7-0.6,1.4c-0.2,0.4-0.4,0.7-0.6,1.1c-0.3,0.3-0.6,0.6-1,1.1
			c-0.4,0.5-1.3,1.1-2.6,1.8c-1.3,0.7-2.4,1-3.1,1c-0.7,0-1-0.3-1-0.9c0-0.3,0.3-0.9,0.9-1.7c0.6-0.9,1.1-1.4,1.5-1.4
			c0.1,0,0.1,0,0.1,0c0,0,0,0.1,0,0.1c0.1-0.1,0.3-0.2,0.5-0.2c-0.4,0.8-0.9,1.5-1.4,2.3c0,0,0,0,0.1,0c0.5,0,1.2-0.2,2.2-0.7
			c0.9-0.5,1.8-1,2.5-1.7c0.8-0.8,1.2-1.5,1.2-2.1c0-0.4-0.1-0.6-0.2-0.8c-0.3-0.3-0.6-0.5-1-0.7c-0.4-0.2-1-0.4-2-0.5
			c0.1-0.1,0-0.1-0.1-0.1c-0.1,0-0.1,0,0,0.1c0,0,0,0.1,0,0.1s-0.3,0-0.8,0c-0.5,0-0.7,0-0.8,0c-0.9,0-2.2,0.3-3.7,1
			c-1.7,0.7-2.6,1.4-2.9,2.1c-0.1,0.1-0.1,0.2-0.2,0.3c-0.1,0.1-0.1,0.2-0.2,0.3c0,0.3,0.2,0.6,0.7,0.9c0.6,0.4,0.9,0.6,0.9,0.7
			c0.1,0.2,0.2,0.4,0.2,0.6c0,0.3-0.2,0.5-0.7,0.5c-0.5,0-1-0.3-1.5-1c-0.5-0.6-0.7-1.1-0.7-1.5c0-0.6,0.5-1.4,1.4-2.5
			c1-1.1,1.7-1.6,2.2-1.6c0.1,0,0.1,0,0.1,0c0,0,0,0,0.1,0c0.2,0,0.3-0.1,0.5-0.1c0.3-0.1,0.5-0.2,0.6-0.4c0.8-0.1,1.8-0.3,3.2-0.5
			c0.2-0.1,0.2-0.2,0.2-0.3l0,0.1c0,0.1,0.1,0.1,0.1,0.1c0.9,0,1.7,0,2.1,0.1c0,0,0-0.1,0.1-0.1c0,0,0-0.1,0.1-0.1
			c-0.2-0.1-0.5-0.2-0.7-0.2l0.5,0c0.3,0,0.9,0.2,1.7,0.5c0.8,0.3,1.2,0.6,1.4,0.8C59.3,18.9,59.5,19.6,59.5,20.4z M56.4,17.4v-0.1
			h-0.4v0.1H56.4z M56.6,17.6v-0.1h-0.3v0.1H56.6z"/>
		<path class="st3" d="M62,27.7c-0.2,0.1-0.4,0.2-0.6,0.3c0,0,0,0.1,0,0.1c0.1-0.1,0.2-0.1,0.3-0.1c-0.3,0.1-0.5,0.3-0.7,0.4
			c-0.2,0.1-0.4,0.2-0.6,0.2c-0.3,0-0.5-0.2-0.7-0.7c-0.2-0.3-0.3-0.6-0.3-0.9c-0.1,0.1-0.5,0.4-1.3,1c0,0-0.1,0-0.2,0.1
			c-0.1,0.1-0.1,0.2-0.2,0.2c-0.1,0.1-0.2,0.1-0.4,0.2c-0.1,0.1-0.3,0.1-0.5,0.1c-0.2,0-0.4-0.1-0.5-0.3c-0.1-0.2-0.2-0.5-0.2-0.8
			c0-0.6,0.3-1.5,0.9-2.5c0.4-0.8,0.9-1.5,1.4-2.1c0,0,0.1,0.1,0.2,0.2c0.1,0.1,0.2,0.1,0.3,0.2c0.1,0,0.1,0,0.2,0.1
			c0,0.1,0.1,0.1,0.1,0.1l-0.9,1.7c-0.3,0.5-0.6,1.1-0.8,1.6c0,0,0.1,0.1,0.1,0c0.1,0,0.2-0.1,0.3-0.2c0.1-0.1,0.2-0.2,0.3-0.2
			c0.6-0.3,1-0.7,1.4-1.3c0.3-0.5,0.6-1.1,0.9-1.6c0.3-0.6,0.7-1,1.1-1.2c0,0.2,0,0.3,0,0.5c0.1,0,0.2,0.1,0.3,0c0,0,0,0.1,0,0.1
			c0,0.1,0,0.1,0,0.2c0,0-0.2,0.4-0.5,1c-0.4,0.6-0.6,1.1-0.6,1.3c0,0.2,0,0.4-0.1,0.5c0,0.2-0.1,0.3-0.1,0.5c0,0.3,0.2,0.5,0.5,0.5
			c0,0,0.4-0.1,1.1-0.2c0,0.1,0,0.3,0.1,0.4C62.5,27.4,62.3,27.6,62,27.7z"/>
		<path class="st3" d="M68,25.5c0,0.8-0.5,1.7-1.5,2.6c-1,0.9-1.9,1.4-2.7,1.4h-0.3c0-0.1,0-0.2-0.1-0.3c0,0-0.1,0-0.1,0.1
			c0,0,0-0.1-0.1-0.2C63,29,63,28.9,63,28.8c0-0.4,0.4-0.9,1.1-1.6c0.7-0.6,1.2-1.1,1.7-1.3l-0.2,0.2c0.2-0.1,0.5-0.1,0.7-0.3
			c0,0-0.1,0.1-0.2,0.3c0,0,0.1,0,0.1,0l0.1,0c-0.4,0.3-0.8,0.7-1.2,1c-0.6,0.5-0.9,0.9-0.9,1.2c1.6-0.8,2.4-1.7,2.4-2.6
			c0-0.2-0.1-0.5-0.1-0.7c-0.1-0.4-0.3-0.5-0.6-0.5c-0.3,0-0.8,0.2-1.3,0.7c-0.4,0.4-0.8,0.9-1.2,1.4c-0.2,0.2-0.4,0.5-0.5,0.7
			c-0.1,0-0.2,0-0.3,0.1c-0.2-0.2-0.3-0.3-0.4-0.5l0.9-1.8v-0.2c0,0,0,0-0.1,0c-0.1,0.1-0.3,0.1-0.4,0.2c-0.1,0.1-0.3,0.2-0.4,0.2
			c-0.1,0-0.1,0-0.2,0c-0.1,0-0.1,0-0.2,0v-0.3c0-0.2,0.4-0.6,1.1-1.3l1.2-1.1c0.7-1.3,1.1-2,1.2-2.2c0.5-0.8,1.1-1.3,1.7-1.6
			l0.2,0.2c0.1,0.1,0.2,0.1,0.3,0.2c0.1,0.1,0.2,0.1,0.2,0.2c0,0.5-0.3,1.1-0.9,1.9c-0.7,0.7-1.4,1.5-2.1,2.2
			c-0.1,0.1-0.1,0.2-0.1,0.3l0.1,0c0.1,0,0.1,0,0.1-0.1c0,0,0.1-0.1,0.1-0.1c0.2-0.1,0.5-0.2,0.8-0.3c0.2-0.1,0.4-0.1,0.6-0.2
			c0.5,0,0.9,0.3,1.3,0.8C67.8,24.6,68,25.1,68,25.5z"/>
		<path class="st4" d="M42.8,21.8c0.1,0.2,0.1,0.3,0.2,0.5c0.1,0.2,0.3,0.3,0.3,0.6c0,0.1-0.2,0.5-0.4,0.5c-0.2,0-0.5-0.3-0.8-0.3
			c-0.2,0-0.5,0.3-0.6,0.3c-0.4,0-0.4-0.5-0.8-0.5c-0.3,0.1-0.2,0.6-0.5,0.8c-0.4,0-0.3-0.6-0.7-0.6c-0.3,0.5,0.1,1.5-0.4,1.8
			c-0.2,0-0.3-0.1-0.4-0.3c-0.1-0.4,0.3-0.7,0.4-1.2c0-0.5-0.2-0.7-0.1-1.1c0.2-0.2,0.4-0.1,0.6-0.2c0.4-0.2,0.6-0.8,1-1
			c0.6-0.2,0.9,0.3,1.4,0.6C42.4,21.7,42.7,21.7,42.8,21.8z M40.5,22.5c-0.1,0-0.1-0.2-0.1-0.3c0.1-0.2,0.5,0,0.6-0.1
			c-0.3-0.2-0.7-0.3-0.8,0.2c-0.2-0.1-0.3,0-0.5,0.1c-0.1,0.1-0.1,0.5,0.1,0.6c0-0.2,0-0.4,0.2-0.5C40.3,22.3,40.5,22.5,40.5,22.5
			L40.5,22.5z M41.7,22.3c-0.2-0.1-0.4,0.1-0.5,0.2c0.4-0.1,0.7,0.1,0.8,0.3c0.1-0.1-0.1-0.3-0.1-0.4c0.3-0.2,0.5,0.1,0.7,0.3
			C42.6,22.2,42,22,41.7,22.3L41.7,22.3z"/>
		<path class="st5" d="M40.7,23.1c0.4,0.1,0.3,0.5,0.6,0.6c0.3,0,0.4-0.3,0.8-0.3c0.3,0,0.3,0.2,0.6,0.2c0.2,1.3,0.2,2.6,0.2,3.9
			c-0.2,0.3-0.4,0.6-0.8,0.6c0-0.2,0.1-0.4,0.1-0.7c-0.3,0.3-0.3,0.9-1.1,0.8c0.1-0.2,0-0.5,0.1-0.7c0.5,0,0.9-0.1,1.4-0.2
			c-1-0.1-2.4,0-3.4-0.2c0-1.4,0.4-2.3,0.3-3.8c0.1,0.2,0.3,0.4,0.4,0.6c0.1,0.3-0.1,0.7-0.1,1.1c0,0.4-0.1,0.8-0.1,1.1
			c0,0.3-0.2,0.7,0.1,0.9c0.2-0.2,0.1-0.5,0.2-0.8c0-0.8,0-1.5,0-2.3C40.6,24,40.6,23.5,40.7,23.1z M42.1,25.5
			c0,0.6-0.1,1.3,0.2,1.5c0.2-0.5,0.1-1.1,0-1.6c-0.1-0.6-0.1-1.2-0.2-1.6V25.5z M40.9,26.6c0,0.2-0.1,0.5,0.2,0.5
			c0.2-0.3,0.1-0.8,0.1-1.2c0-0.7-0.1-1.4-0.2-2C41,24.7,40.8,25.7,40.9,26.6L40.9,26.6z"/>
		<path class="st5" d="M44.3,26.8c-0.2,0.1-0.4,0.1-0.7,0.1c-0.3,0-0.5,0-0.5-0.3c0.2-0.2,0.8,0,1-0.3c0.2-0.7,0.3-1.8,0-2.5
			c-0.5,0-0.8,0.5-1.1,0.5c-0.2-0.7,0.6-1.2,1.3-1.1C44.9,24.1,44.7,26,44.3,26.8z"/>
		<path class="st5" d="M39.3,27.4c0.1,0,0.3,0,0.4,0.1c0,0.2,0.2,0.3,0.2,0.5C39.6,28,39.4,27.7,39.3,27.4z"/>
		<path class="st5" d="M40.9,27.4v0.7c-0.2,0-0.4,0-0.5-0.1c-0.1-0.2-0.2-0.3-0.3-0.6C40.4,27.5,40.6,27.4,40.9,27.4z"/>
		<path class="st4" d="M16.5,36.3h-0.7l-0.7-1v1h-0.6v-2.7h1c0.3,0,0.5,0.1,0.7,0.2c0.3,0.3,0.4,0.9,0.1,1.2
			c-0.1,0.2-0.3,0.3-0.5,0.3L16.5,36.3z M15.1,34.1v0.8h0.3c0.1,0,0.2,0,0.3-0.1c0.1-0.1,0.2-0.2,0.1-0.3c0-0.2-0.1-0.4-0.3-0.4
			c0,0,0,0-0.1,0L15.1,34.1z"/>
		<path class="st4" d="M18.1,36.3c-0.4,0-0.7-0.1-1-0.4c-0.5-0.6-0.5-1.4,0-2c0.5-0.5,1.4-0.5,2,0c0.5,0.6,0.5,1.4,0,2
			C18.8,36.2,18.5,36.3,18.1,36.3z M18.1,34.1c-0.2,0-0.4,0.1-0.6,0.3c-0.1,0.2-0.2,0.4-0.2,0.6c0,0.2,0.1,0.4,0.2,0.6
			c0.1,0.2,0.3,0.3,0.6,0.3c0.2,0,0.4-0.1,0.6-0.3c0.1-0.2,0.2-0.4,0.2-0.6c0-0.2-0.1-0.4-0.2-0.6C18.5,34.1,18.3,34.1,18.1,34.1z"
			/>
		<path class="st4" d="M21.2,36.3h-1.4v-2.7h0.6v2.1h0.8V36.3z"/>
		<path class="st4" d="M22.9,36.3h-1.4v-2.7h0.6v2.1h0.8V36.3z"/>
		<path class="st4" d="M24.9,35.5c0,0.2-0.1,0.5-0.2,0.6c-0.2,0.2-0.4,0.2-0.7,0.2c-0.5,0-0.9-0.3-0.9-0.8c0-0.1,0-0.1,0-0.2h0.6
			c0,0.1,0,0.2,0.1,0.3c0,0.1,0.1,0.1,0.2,0.1c0.1,0,0.2,0,0.2-0.1c0.1-0.1,0.1-0.1,0.1-0.2c0,0,0-0.1,0-0.1c0-0.1-0.1-0.2-0.3-0.3
			c-0.2-0.1-0.4-0.2-0.5-0.3c-0.2-0.1-0.3-0.3-0.3-0.5c0-0.2,0.1-0.4,0.3-0.6c0.2-0.1,0.4-0.2,0.6-0.2c0.2,0,0.4,0.1,0.6,0.2
			c0.2,0.2,0.2,0.4,0.2,0.6h-0.6c0-0.1,0-0.2-0.1-0.2c0-0.1-0.1-0.1-0.2-0.1c-0.1,0-0.1,0-0.2,0.1c-0.1,0-0.1,0.1-0.1,0.2
			c0,0.1,0.1,0.2,0.3,0.3c0.2,0.1,0.3,0.2,0.5,0.3c0.2,0.1,0.3,0.2,0.4,0.4C24.9,35.3,24.9,35.4,24.9,35.5z"/>
		<path class="st4" d="M30.6,35.4c0,0.2-0.1,0.5-0.3,0.6c-0.2,0.1-0.4,0.2-0.7,0.2h-0.9v-2.7h0.9c0.2,0,0.4,0,0.6,0.2
			c0.2,0.1,0.3,0.3,0.3,0.5c0,0.2-0.1,0.4-0.3,0.5C30.4,34.9,30.6,35.1,30.6,35.4z M29.9,34.3c0-0.2-0.1-0.2-0.3-0.2h-0.2v0.5h0.2
			C29.8,34.6,29.9,34.5,29.9,34.3z M29.3,35.1v0.6h0.3c0.3,0,0.4-0.1,0.4-0.3s-0.1-0.3-0.4-0.3H29.3z"/>
		<path class="st4" d="M32.4,36.3H31v-2.7h1.4v0.5h-0.8v0.5h0.8v0.5h-0.8v0.6h0.8L32.4,36.3z"/>
		<path class="st4" d="M34.3,36.3h-1.4v-2.7h1.4v0.5h-0.8v0.5h0.8v0.5h-0.8v0.6h0.8V36.3z"/>
		<path class="st4" d="M36.7,36.3H36l-0.7-1v1h-0.6v-2.7h1c0.3,0,0.5,0.1,0.7,0.2c0.3,0.3,0.4,0.9,0.1,1.2c-0.1,0.2-0.3,0.3-0.5,0.3
			L36.7,36.3z M35.3,34.1v0.8h0.3c0.1,0,0.2,0,0.3-0.1c0.1-0.1,0.2-0.2,0.1-0.3c0-0.2-0.1-0.4-0.3-0.4c0,0,0,0-0.1,0L35.3,34.1z"/>
		<path class="st4" d="M41.1,36.3h-0.6v-2.7h0.9c0.3,0,0.5,0.1,0.7,0.2c0.2,0.2,0.3,0.4,0.3,0.7c0,0.3-0.1,0.5-0.3,0.7
			c-0.2,0.1-0.5,0.2-0.7,0.2h-0.3V36.3z M41.1,34.1v0.7h0.3c0.3,0,0.4-0.1,0.4-0.4s-0.1-0.3-0.4-0.3H41.1z"/>
		<path class="st4" d="M43.3,36.3h-0.6v-2.7h0.6V36.3z"/>
		<path class="st4" d="M45.3,36.3h-1.7v-0.4l1-1.7h-1v-0.5h1.6v0.5l-0.9,1.6h0.9L45.3,36.3z"/>
		<path class="st4" d="M47.1,36.3h-1.7v-0.4l1-1.7h-1v-0.5h1.6v0.5l-0.9,1.6h0.9V36.3z"/>
		<path class="st4" d="M49.7,36.3h-0.7l-0.2-0.5H48l-0.2,0.5h-0.6l1.1-2.7h0.5L49.7,36.3z M48.7,35.3l-0.3-1l-0.3,1H48.7z"/>
		<path class="st4" d="M55.2,35.5c0,0.2-0.1,0.5-0.2,0.6c-0.2,0.2-0.4,0.2-0.7,0.2c-0.5,0-0.9-0.3-0.9-0.8c0-0.1,0-0.1,0-0.2h0.6
			c0,0.1,0,0.2,0.1,0.3c0,0.1,0.1,0.1,0.2,0.1c0.1,0,0.2,0,0.2-0.1c0.1-0.1,0.1-0.1,0.1-0.2c0,0,0-0.1,0-0.1c0-0.1-0.1-0.2-0.3-0.3
			c-0.2-0.1-0.4-0.2-0.5-0.3c-0.2-0.1-0.3-0.3-0.3-0.5c0-0.2,0.1-0.4,0.3-0.6c0.2-0.1,0.4-0.2,0.6-0.2c0.2,0,0.4,0.1,0.6,0.2
			c0.2,0.2,0.2,0.4,0.2,0.6h-0.6c0-0.1,0-0.2-0.1-0.2c0-0.1-0.1-0.1-0.2-0.1c-0.1,0-0.1,0-0.2,0.1c-0.1,0-0.1,0.1-0.1,0.2
			c0,0.1,0.1,0.2,0.3,0.3c0.2,0.1,0.3,0.2,0.5,0.3c0.2,0.1,0.3,0.2,0.4,0.4C55.1,35.3,55.2,35.4,55.2,35.5z"/>
		<path class="st4" d="M57.4,35.3c0,0.3-0.1,0.5-0.3,0.7c-0.2,0.2-0.4,0.3-0.7,0.3c-0.3,0-0.5-0.1-0.7-0.3c-0.2-0.2-0.3-0.4-0.3-0.7
			v-1.8h0.6v1.7c0,0.3,0.1,0.5,0.4,0.5c0.3,0,0.4-0.2,0.4-0.5v-1.7h0.6V35.3z"/>
		<path class="st4" d="M59.6,35.5c0,0.2-0.1,0.5-0.2,0.6c-0.2,0.2-0.4,0.2-0.7,0.2c-0.5,0-0.9-0.3-0.9-0.8c0-0.1,0-0.1,0-0.2h0.6
			c0,0.1,0,0.2,0.1,0.3c0,0.1,0.1,0.1,0.2,0.1c0.1,0,0.2,0,0.2-0.1c0.1-0.1,0.1-0.1,0.1-0.2c0,0,0-0.1,0-0.1c0-0.1-0.1-0.2-0.3-0.3
			c-0.2-0.1-0.4-0.2-0.5-0.3c-0.2-0.1-0.3-0.3-0.3-0.5c0-0.2,0.1-0.4,0.3-0.6c0.2-0.1,0.4-0.2,0.6-0.2c0.2,0,0.4,0.1,0.6,0.2
			c0.2,0.2,0.2,0.4,0.2,0.6h-0.6c0-0.1,0-0.2-0.1-0.2c0-0.1-0.1-0.1-0.2-0.1c-0.1,0-0.1,0-0.2,0.1c-0.1,0-0.1,0.1-0.1,0.2
			c0,0.1,0.1,0.2,0.3,0.3c0.2,0.1,0.3,0.2,0.5,0.3c0.2,0.1,0.3,0.2,0.4,0.4C59.6,35.3,59.6,35.4,59.6,35.5z"/>
		<path class="st4" d="M62,36.3h-0.6v-1.1h-0.9v1.1h-0.6v-2.7h0.6v1h0.9v-1H62L62,36.3z"/>
		<path class="st4" d="M63.1,36.3h-0.6v-2.7h0.6L63.1,36.3z"/>
		<ellipse class="st1" cx="26.7" cy="35" rx="0.5" ry="0.5"/>
		<ellipse class="st1" cx="38.6" cy="35" rx="0.5" ry="0.5"/>
		<ellipse class="st1" cx="51.5" cy="35" rx="0.5" ry="0.5"/>
	</g>
</g>
</svg>
